<svg width="78" height="70" viewBox="0 0 78 70" fill="none" xmlns="http://www.w3.org/2000/svg">
<path d="M25.964 10.6314L26.225 10.5077L26.4722 10.3978L26.7058 10.3292L26.9393 10.288H27.2689L27.5436 10.3704L27.8733 10.5627L28.2167 10.8786L28.4914 11.2083L28.6837 11.5791L28.8486 11.9225L29.1508 12.3209L29.4667 12.4857L30.0024 12.6093L30.6754 12.5681L31.2936 12.5269H31.6232L31.8155 12.4582L31.8842 12.4033L31.9117 12.0874L31.8705 11.8539L31.7881 11.689C31.7881 11.689 31.7468 11.6066 31.6919 11.6066C31.637 11.6066 31.4721 11.5654 31.4721 11.5654L31.3348 11.5105L31.2798 11.3456L31.3348 10.8786L31.4447 10.5764L31.637 10.2193L31.9254 9.86214L32.1177 9.61489L32.1727 9.46379L32.2963 9.39511L32.5847 9.36764L32.777 9.38138H32.9007L32.9693 9.28523L32.9007 9.09292L32.777 8.81821L32.7633 8.50228L32.8183 8.21382L32.9419 7.9391L33.2166 7.66438L33.6287 7.41714L34.2056 7.27978L34.6863 7.2111L35.2495 7.15615L35.6479 7.11495L36.1973 7.06L36.6781 6.97759L37.0215 6.77155L37.2412 6.48309L37.3236 6.20837L37.2962 5.86497L37.2 5.67267L37.0352 5.46663L36.8429 5.3018L36.6918 5.24686L36.4583 5.26059L36.2934 5.24686L36.1973 5.16444L36.211 4.98587L36.3484 4.82104L36.4995 4.69742L36.6918 4.65621L36.8978 4.69742L37.2824 4.90346L37.722 5.24686L37.9967 5.39795L38.1753 5.59026L38.2577 5.67267H38.3676L38.4363 5.4941L38.4225 5.26059L38.395 5.06829L38.4912 5.02708L38.6011 5.1095L38.711 5.32927L38.8071 5.50784L38.8346 5.61773L38.9582 5.70014H39.2192L39.4252 5.78256L39.8236 5.96113L40.1395 6.12596L40.4554 6.16717L41.7878 6.1809L41.884 6.19464L41.9527 6.34573L42.0351 6.56551L42.2136 6.73034L42.4472 6.82649L42.7906 6.84023L43.2164 6.85396L43.4499 6.88144L43.6422 6.90891L43.7383 6.82649L43.7658 6.73034L43.9444 6.6754L44.1367 6.68913L44.2878 6.70287L44.329 6.78528L44.3702 7.00506L44.4251 7.18363L44.59 7.25231L44.7411 7.27978L44.8922 7.26604L45.002 7.22483L45.0845 7.06L45.1394 6.89517L45.2493 6.81276L45.4553 6.73034L45.6614 6.7166L45.8537 6.77155L46.0185 6.85396L46.1147 6.97759L46.1284 7.2111L46.0734 7.62318L46.0322 8.07646L45.9498 8.51601V8.63964L45.8949 8.72205L45.8262 8.79073L45.5377 8.81821L44.9334 8.79073H44.5762L44.4114 8.81821L44.329 8.92809L44.1916 9.61489L44.0543 10.288L43.807 10.7687L43.3949 11.3181L43.0515 11.6753L42.8318 11.8539L42.7219 11.95L42.7493 12.0462L43.0653 11.9912L43.4636 12.0462L43.9581 12.1835L44.5625 12.4445L45.7987 13.2L46.4443 13.6395L46.9113 13.928L47.5157 14.189L48.0789 14.395L48.5459 14.6422L48.8618 14.9032L49.2739 15.2878L49.7135 15.6175L50.0019 15.8373L50.2904 15.9746L50.4415 16.0571L50.4964 16.2906L50.7162 16.7301L50.8948 16.9499L51.2519 17.1834L51.6365 17.2796H52.4469L53.0925 17.2658L53.4359 17.2521L53.5183 17.2109L53.6007 16.9362L53.6969 16.4279L53.848 15.8235L54.1364 15.178L54.4112 14.5186L54.6035 13.928L54.6859 13.3236L54.7408 12.5132L54.7546 11.5929L55.0156 9.76599L55.0842 9.20281L55.1117 8.777V8.50228L55.1941 8.36492L55.2628 8.30997L55.4414 8.2825L55.565 8.22756L55.5925 8.07646L55.6611 7.34846L55.771 6.68913L55.9908 6.11222L56.1694 5.65894L56.3891 5.20565L56.4853 4.94467L56.5677 4.75236L56.6227 4.64247L56.7738 4.56006L57.0759 4.57379L57.3095 4.72489L57.5155 5.01335L57.6803 5.4529L57.749 5.89245L57.7765 6.20837V6.55177L57.8039 6.6754L57.8726 6.7166L58.1199 6.68913L58.3397 6.6754L58.4221 6.68913L58.532 6.70287L58.5594 6.82649L58.4907 7.00506L58.4358 7.16989V7.56823L58.4633 7.85669L58.6144 8.26877L58.8204 8.76326L59.0677 9.34017L59.2188 9.79346L59.3149 10.2742L59.3424 10.8099V11.2632L59.3561 11.4967L59.3973 11.6478L59.5484 11.689H59.8781L60.1528 11.6203C60.1528 11.6203 60.3451 11.5929 60.4 11.5929C60.455 11.5929 60.7297 11.5791 60.7297 11.5791L60.9907 11.6478L61.1967 11.8126L61.4165 12.1148L61.6638 12.5544L61.9247 12.9802L62.0346 13.2274L62.1033 13.6121L62.117 14.1752L62.1857 14.917L62.2407 15.3153L62.2819 15.6038L62.4467 15.9884L62.6253 16.1669L62.7764 16.3455L63.0648 16.4417L63.1747 16.579L63.2709 17.046L63.3258 17.6367L63.3395 18.7493L63.3807 19.4086L63.5181 20.0405L63.8066 20.5212L64.1774 21.002L64.6445 21.4141L64.9604 21.6064L65.2214 21.6888H65.4274L65.5098 21.7025L65.5785 21.8262L65.6472 22.2108L65.7708 22.3619L66.0455 22.5267L66.4988 22.7877L66.8422 23.0074L67.1444 23.3371L67.4329 23.7492L67.6664 24.3536L68.0372 25.1503L68.4081 25.8508L68.6691 26.4552L68.9438 27.142L69.0949 27.8013L69.0674 28.0073L69.1086 28.1172L69.1911 28.076L69.2185 27.8425L69.2735 27.6502L69.3834 27.609L69.5757 27.6639L69.6718 27.7738L69.7954 28.1172L69.9191 28.4331L70.0152 28.6804L70.0702 28.8178L70.2075 28.8452L70.2899 28.598L70.2487 28.1584L70.2762 27.8288L70.3174 27.7051L70.496 27.6639H70.6471L70.7295 27.7464L70.7707 28.0348L70.7844 28.9689L70.8394 29.5458L70.9355 30.1364L71.1003 30.6584L71.3064 30.988L71.6086 31.3177L71.8558 31.6336L72.1992 32.0869L72.68 32.8699L73.0921 33.5017L73.408 33.8863L73.7377 34.1885L73.9025 34.2709L74.0811 34.2847C74.0811 34.2847 74.2047 34.2709 74.2047 34.2022C74.2047 34.1336 74.2184 33.9962 74.2184 33.9962C74.2184 33.9962 74.2322 33.7764 74.2871 33.749C74.342 33.7215 74.4245 33.6116 74.4245 33.6116L74.658 33.5292H74.9189L75.0563 33.6116L75.0975 33.7078L75.0151 33.9275L74.9189 34.2022L74.8777 34.477L74.7404 34.8478L74.4794 35.0264L74.3008 35.0401L74.1772 35.0539C74.1772 35.0539 74.0811 35.0401 74.0673 35.1088C74.0536 35.1775 73.9712 35.4385 73.9712 35.4385L74.0261 35.9742L74.0811 37.1417L74.0536 38.2818L74.1223 39.1884L74.1772 39.6417L74.1223 40.4521L74.0261 41.1939L73.7926 41.9356L73.5042 42.801L73.202 43.4328L72.9959 43.8861L72.8723 44.3669L72.7487 45.3009L72.6663 46.0426L72.5564 46.5921L72.3091 47.1278L71.7459 47.6085L71.1278 48.0344L70.7157 48.3365L70.3174 48.7074L70.0839 49.0233L69.8916 49.3805L69.6993 49.8612L69.5207 50.4107L69.2185 51.0288L68.7378 51.6744L68.4768 52.0315L68.2021 52.4161L67.9823 52.9518L67.5565 53.4875L67.0895 53.8996L66.7598 54.2567L66.595 54.5315L66.5812 55.0122L66.595 55.5205L66.4851 56.1523L66.334 56.6743L66.1691 57.0039L65.8257 57.3748L65.2763 57.5534L64.4796 57.5671L63.4357 57.6083L62.7077 57.7319L62.1445 57.8968L61.5401 58.2402L61.2379 58.4187L61.0182 58.4462L60.8259 58.5012L60.7297 58.666L60.6885 59.0506L60.6748 59.188L60.5649 59.2566H60.3039L59.8369 59.0918L59.4111 59.0094C59.4111 59.0094 59.2874 58.9544 59.2874 58.8995C59.2874 58.8446 59.2874 58.5973 59.2874 58.5973L59.1638 58.2539L58.9852 58.0753L58.8479 58.0067L58.7655 58.1303L58.7792 58.4874L58.7929 58.7896L58.738 58.872L58.5869 58.8308L58.3397 58.6385L58.0787 58.4325L57.9138 58.2539L57.955 58.199H58.1611L58.2298 58.0479L58.2572 57.7457L58.1748 57.5259L57.9413 57.1688L57.8589 57.1276L57.7078 57.2649L57.6941 57.7319L57.7078 58.1028L57.5567 58.3913L57.282 58.5836L57.1309 58.7072H56.1694L55.4414 58.666L55.2353 58.5424C55.2353 58.5424 55.0018 58.2402 54.9469 58.199C54.8919 58.1578 54.6722 58.1166 54.6172 58.0753C54.5623 58.0341 54.3562 58.0479 54.2875 58.0204C54.2189 57.9929 53.7518 57.9929 53.7518 57.9929L53.4909 57.9792L52.9552 57.7594L52.5293 57.5122L52.1173 57.3473L51.6914 57.3061C51.6914 57.3061 51.3068 57.3336 51.2382 57.2924C51.1695 57.2512 50.8261 57.1138 50.8261 57.1138L50.3865 56.6056L50.2629 56.221L50.2904 55.6303L50.3041 54.8886L50.3316 54.1606L50.1668 53.6524C50.1668 53.6524 49.947 53.4188 49.892 53.3776C49.8371 53.3364 49.5761 53.2128 49.5761 53.2128L49.219 53.1167L49.0129 52.9518L48.9992 52.8282V52.6222L49.0267 52.4573L48.9717 52.4024L48.8481 52.4573L48.4223 52.7183L48.1888 52.8557C48.1888 52.8557 48.024 52.9381 47.9415 52.9381C47.8591 52.9381 47.6393 52.9518 47.5844 52.9518C47.5295 52.9518 47.3097 52.9244 47.3097 52.9244L47.2547 52.8282L47.241 52.5535L47.2547 52.2376L47.2822 52.0865L47.4883 51.9491L47.6668 51.7431L47.7492 51.4546L47.7218 51.0151L47.6805 50.603L47.6668 50.2184L47.6256 49.9849L47.5295 49.875L47.3372 49.82L47.1586 49.8887L47.0624 49.9299L46.9938 50.0948L47.0212 50.4931L46.9663 50.8365L46.9113 51.1387L46.7877 51.3447L46.6366 51.537L46.3756 51.6744L46.1284 51.7156L45.6202 51.7431L45.3592 51.7293L45.2905 51.6194L45.3317 51.4271L45.5652 51.2074L45.8674 50.9052L46.2108 50.6305L46.5817 50.2321L46.8014 49.9299L47.0075 49.4904L47.1586 48.9135L47.1998 48.419L47.1723 47.8833L47.2135 47.43L47.1861 47.1003L47.1586 46.8668L47.0487 46.8256L46.9525 47.0042L46.7053 47.4712L46.3482 47.9657L45.6614 48.7898L45.3729 49.147L44.8784 49.6003L44.5488 49.8612L44.3564 49.9986L44.2191 50.1772L44.0817 50.3695L44.0405 50.603L44.068 50.9189V51.1662L43.9581 51.2623L43.6559 51.276L43.3263 51.0425L42.9829 50.6579L42.7081 50.0398L42.5296 49.3255L42.3785 48.7212L42.1587 48.2816L41.7329 47.8421L41.417 47.7184L41.0873 47.7047L40.9499 47.6223L40.8675 47.43L40.9637 47.2102C40.9637 47.2102 41.0461 47.1553 41.1285 47.0866C41.2109 47.0179 41.3345 46.9904 41.3345 46.9904L41.4444 46.9355L41.4994 46.7981L41.5131 46.5921L41.417 46.5097L41.156 46.4547L40.9637 46.4685L40.7851 46.4273C40.7851 46.4273 40.7027 46.3311 40.6889 46.2762C40.6752 46.2212 40.6889 45.9602 40.6889 45.9602L40.6615 45.8091L40.3868 45.7542L39.906 45.7405L39.439 45.5756L38.917 45.5069L38.1753 45.5344H37.722L37.461 45.452L37.2962 45.3009L37.2412 45.1223L37.255 44.8614C37.255 44.8614 37.3099 44.7515 37.255 44.6965C37.2 44.6416 37.1039 44.5317 37.1039 44.5317L36.7055 44.3531L36.2385 44.2432L35.8264 44.257L35.3182 44.2844L34.9885 44.3669L34.2743 44.5592L33.1342 45.0124L32.4886 45.3284L31.8293 45.6306L31.1562 45.8366L30.6342 45.919H29.9062L29.5216 45.9465L29.2881 46.0701L29.0546 46.3311C29.0546 46.3311 28.9584 46.5097 28.8898 46.5097C28.8211 46.5097 28.2167 46.6608 28.2167 46.6608L27.2827 46.8119L26.5272 47.0866L25.703 47.4162L25.0162 47.8146L24.5355 48.103L24.2745 48.4327L24.0822 48.8173L23.8899 49.1744L23.7937 49.3805L23.7113 49.5041L23.3542 49.6277L22.6674 49.8063C22.6674 49.8063 21.9256 49.8612 21.802 49.875C21.6784 49.8887 20.8542 49.8887 20.8542 49.8887L20.2499 49.8338L19.5356 49.875L18.9999 49.9437L18.2856 50.2184L17.3104 50.6579L16.7884 51.0975L16.4313 51.3585L16.2115 51.5782L15.9642 51.9491L15.662 52.3474L15.3736 52.5535L15.1126 52.6634L14.5906 52.6771L13.1758 52.6908L12.6951 52.6771L12.077 52.5398L11.6511 52.2376L11.1841 51.8804L10.9506 51.7293L10.4149 51.6881L9.96162 51.4546L9.75559 51.2348L9.70064 51.07L9.71438 50.603L9.72811 50.3695C9.72811 50.3695 9.68691 50.2596 9.74185 50.2046C9.79679 50.1497 10.0578 50.0123 10.0578 50.0123C10.0578 50.0123 10.2089 49.9849 10.2638 49.9437C10.3188 49.9024 10.5111 49.7926 10.5111 49.7926L10.6622 49.6003V49.0646L10.6484 48.7074L10.5523 48.5014L10.4561 48.2679L10.4699 47.8558L10.4836 47.1415L10.4561 46.5371V46.4135L10.36 46.2075L9.94789 45.7405L9.57702 45.3833L9.27483 45.1086L9.04132 44.8614L8.9589 44.669L8.86275 44.3806C8.86275 44.3806 8.83528 44.0509 8.79407 43.9823C8.75286 43.9136 8.62924 43.5839 8.62924 43.5839C8.62924 43.5839 8.46441 43.3504 8.40946 43.2955C8.35452 43.2405 8.05233 42.8971 8.05233 42.8971L7.81881 42.6499L7.72266 42.4988C7.72266 42.4988 7.64025 42.3202 7.65398 42.2653C7.66772 42.2103 7.69519 41.8806 7.69519 41.8806L7.65398 41.5922L7.53036 41.4686L7.22817 41.3312L6.89851 41.1114L6.69247 40.9329L6.50016 40.7131L6.37654 40.4384L6.33533 40.0675L6.32159 39.7516L6.37654 39.5455L6.33533 39.4494L6.08809 39.4356C6.08809 39.4356 5.92325 39.3944 5.85457 39.367C5.7859 39.3395 5.67601 39.2708 5.67601 39.2708L5.52491 39.0373V38.7351V38.5153L5.45623 38.3368L5.31887 38.1719L4.87932 37.856L4.37109 37.3203L4.08264 36.9769L3.9178 36.7983L3.86286 36.6473L3.84912 36.4824L3.97275 36.3588L4.20626 36.3451L4.46724 36.4549L4.71449 36.7846L5.08536 37.128L5.40129 37.3615L5.6348 37.4302L5.8271 37.4027L5.89578 37.2791L5.90951 36.9769L5.89578 36.5374C5.89578 36.5374 5.88205 36.3451 5.85457 36.2901C5.8271 36.2352 5.85457 36.2352 5.71721 36.1528C5.57986 36.0703 5.44249 36.0429 5.44249 36.0429L5.23645 36.0566L5.11283 35.9605L5.1403 35.0127L5.12657 34.9303L4.97548 34.8204L4.78317 34.7929L4.45351 34.5731L4.17879 34.1473L3.98649 33.694L3.9178 33.4468L4.02769 33.1858L4.20626 32.8287L4.24747 32.4715L4.28868 31.7572L4.27494 30.3424V29.7106L4.31614 29.2573L4.34362 29.0513L4.38483 28.9139L4.45351 28.9002L4.57713 28.9551L4.68702 29.2436L4.78317 29.6007L4.90679 29.793L5.00294 29.8067L5.12657 29.6282L5.19525 29.2985L5.37382 28.8178L5.66227 28.2408L6.40401 27.5403L6.98093 26.8535L7.33806 26.5101L7.81881 26.1392L8.38199 25.8371L8.91769 25.6997H9.54955L10.0303 25.5898C10.0303 25.5898 10.3874 25.3975 10.4424 25.37C10.4973 25.3426 10.7583 25.0816 10.7583 25.0816L11.1292 24.8343L11.555 24.7107L11.9396 24.4909L12.283 24.1613L12.4478 23.914L12.75 23.5981L13.1484 23.3783L13.478 23.2959L13.9176 23.2822L14.4808 23.241L15.1813 23.0899L15.7445 22.9388L16.2939 22.6091L16.8845 22.1558L17.5027 21.4141L17.8461 20.9745L18.1208 20.3701L18.2581 19.8344L18.2993 19.1476L18.3131 18.4059L18.3818 17.8427L18.6153 17.2796L18.89 16.8949L19.1235 16.634L19.2883 16.4691L19.4257 16.4554L19.5631 16.579L19.879 17.0048L20.0988 17.2109L20.3323 17.4169L20.4834 17.5268C20.4834 17.5268 20.5383 17.5955 20.5795 17.5268C20.6207 17.4581 20.6619 17.3894 20.6619 17.3894L20.6894 16.8675L20.6207 16.0021L20.6345 15.7137L20.7581 15.5763L21.1152 15.5488L21.6509 15.5763H21.9531L22.0767 15.5076L22.1317 15.1917L22.1454 14.7384L22.1179 14.5324L21.9668 14.4774H21.802L21.6647 14.4225C21.6647 14.4225 21.6372 14.3126 21.6784 14.2439C21.7196 14.1752 21.9394 13.9692 21.9394 13.9692L22.1729 13.7082L22.324 13.4335L22.3927 13.2687C22.3927 13.2687 22.4201 13.2137 22.4751 13.1588C22.53 13.1038 22.7086 13.0901 22.7086 13.0901L23.2443 13.1313H23.4915L23.6289 13.0489L23.6426 12.6231L23.6289 12.3483C23.6289 12.3483 23.6152 12.2247 23.6701 12.1835C23.725 12.1423 23.8075 12.0599 23.8624 12.0599C23.9174 12.0599 24.1371 12.0874 24.1371 12.0874L24.4393 12.1286L24.5492 12.0462V11.8126L24.5629 11.5242L24.8102 11.3044L25.1948 11.0434L25.964 10.6314Z" fill="#010101" stroke="black" stroke-width="0.0770932"/>
<path d="M32.9272 5.03507L33.1021 4.86995L33.2866 4.80196H33.5197L33.7237 4.86995L34.0539 4.93794L34.4619 4.94765L34.7727 4.92823L35.0058 4.82139C35.0058 4.82139 35.0932 4.73397 35.132 4.72426C35.1709 4.71455 35.2583 4.70483 35.2583 4.70483L35.404 4.74368L35.4914 4.86024L35.5011 5.1322L35.5108 5.32645L35.4429 5.46243L35.2875 5.62755L35.1418 5.68583C35.1418 5.68583 35.0446 5.71496 34.9961 5.71496C34.9475 5.71496 34.8407 5.7441 34.8407 5.7441L34.7144 5.85094L34.4522 5.99663L34.2773 6.05491L34.1025 6.06462L33.9568 6.05491C33.9568 6.05491 33.8111 5.99663 33.7723 5.94807C33.7334 5.89951 33.5877 5.70525 33.5877 5.70525L33.4226 5.57898L33.1895 5.46243L33.0049 5.30703L32.9272 5.12248V5.03507Z" fill="#008000" stroke="black" stroke-width="0.0770932"/>
<path d="M44.8444 9.64879H44.689L44.6113 9.59051V9.45453L44.6502 9.3574L44.7085 9.30884L44.8153 9.32826L44.8736 9.4351L44.893 9.57108L44.8444 9.64879Z" fill="#008000" stroke="black" stroke-width="0.0770932"/>
<path d="M45.1752 10.0667V9.82387L45.2432 9.66846L45.3501 9.52277L45.4569 9.45478L45.622 9.44507L45.7386 9.46449L45.894 9.51306L45.9911 9.57133L46.0397 9.65875L46.0105 9.73645L45.9231 9.82387L45.8648 9.93071L45.8454 10.0667L45.9037 10.1735L45.9911 10.2707L46.0785 10.3386L46.1271 10.4261L46.1174 10.5815C46.1174 10.5815 46.1077 10.6883 46.0688 10.698C46.03 10.7077 45.9911 10.7466 45.9523 10.7466C45.9134 10.7466 45.7192 10.7369 45.7192 10.7369L45.4958 10.63L45.3112 10.494L45.185 10.3192L45.1655 10.1444L45.1752 10.0667Z" fill="#008000" stroke="black" stroke-width="0.0770932"/>
<path d="M50.3034 15.1836L50.4133 15.0187L50.6262 14.9226L50.7635 14.8402L50.9215 14.7784L51.0383 14.7372L51.1619 14.7166L51.258 14.7372L51.3267 14.7921L51.2855 14.8951L51.1894 14.9501L51.0245 15.0462L50.8734 15.0943L50.7567 15.1698L50.6056 15.2591L50.5163 15.3003L50.4064 15.3141L50.3103 15.2935L50.269 15.2385L50.3034 15.1836Z" fill="#008000" stroke="black" stroke-width="0.0770932"/>
<path d="M62.3707 61.0479L62.3569 60.9174L62.3638 60.8006L62.4256 60.7251H62.5012L62.6179 60.7526L62.769 60.9586L62.8858 61.144L62.9682 61.302L63.0437 61.4119L63.1261 61.4531L63.1536 61.5355L63.0781 61.6111L62.9751 61.6866L62.927 61.7416L62.8446 61.7759C62.8446 61.7759 62.7553 61.7828 62.7278 61.769C62.7003 61.7553 62.6523 61.7278 62.6523 61.6935C62.6523 61.6591 62.6729 61.5424 62.6729 61.5424C62.6729 61.5424 62.666 61.4874 62.6523 61.46C62.6385 61.4325 62.5904 61.3295 62.5904 61.3295L62.5149 61.2196L62.4394 61.1372L62.3981 61.1028L62.3707 61.0479V61.0479Z" fill="#008000" stroke="black" stroke-width="0.0770932"/>
<path d="M62.6929 62.0841L62.7477 61.9675L62.7889 61.892L62.8643 61.844H63.0152L63.1318 61.8372L63.221 61.844L63.269 61.8509L63.317 61.9606L63.2896 62.0429L63.1798 62.0909L63.1112 62.1252L63.0084 62.1526H62.8506L62.6997 62.1389L62.6929 62.0841H62.6929Z" fill="#008000" stroke="black" stroke-width="0.0770932"/>
<path d="M56.2374 60.8211L56.2168 60.6837L56.2443 60.512L56.258 60.306C56.258 60.306 56.3061 60.2511 56.3129 60.2167C56.3198 60.1824 56.3061 60.148 56.3267 60.1137C56.3473 60.0794 56.4366 60.0244 56.4366 60.0244C56.4366 60.0244 56.4915 60.0313 56.519 60.0313C56.5465 60.0313 56.6289 60.1 56.6289 60.1L56.6563 60.2579C56.6563 60.2579 56.6701 60.3129 56.6701 60.3678C56.6701 60.4228 56.677 60.5532 56.6701 60.5876C56.6632 60.6219 56.6014 60.7249 56.6014 60.7249L56.5121 60.8211C56.5121 60.8211 56.4709 60.8554 56.4297 60.8623C56.3885 60.8692 56.3061 60.8623 56.3061 60.8623L56.2374 60.8211Z" fill="#008000" stroke="black" stroke-width="0.0770932"/>
<path d="M57.3544 62.4566L57.471 62.2526C57.471 62.2526 57.5584 62.1555 57.5973 62.1555C57.6361 62.1555 57.7332 62.1555 57.7332 62.1555L57.8886 62.2818L57.9275 62.3789L58.1023 62.4372L58.384 62.4663L58.5783 62.544L58.8211 62.748L59.093 62.952L59.3358 63.1559L59.5787 63.2919L59.8603 63.3211C59.8603 63.3211 60.0934 63.3308 60.1323 63.3016C60.1711 63.2725 60.2391 63.2142 60.2877 63.1948C60.3363 63.1754 60.5305 63.1171 60.5305 63.1171L60.7831 63.0879L61.0162 63.0394L61.3852 63.0102L61.7155 62.9617L61.9292 62.9131L62.104 62.8063L62.2788 62.7091H62.4634L62.6673 62.7869L62.7936 62.8646L62.8907 63.0491L62.9102 63.3016L62.9004 63.5639L62.8519 63.8261L62.7547 64.1369L62.677 64.3409L62.6576 64.6226L62.6673 64.9431L62.6868 65.1373L62.6382 65.2248L62.4537 65.2733L62.3371 65.283L62.1817 65.4093L62.0749 65.555L61.9777 65.7007L61.9486 65.8949L61.9972 66.0406L62.1331 66.0989L62.2011 66.1766V66.2543L62.1914 66.3709L62.0651 66.4389L62.0263 66.5651V66.7302C62.0263 66.7302 62.0263 66.8274 62.0263 66.8856C62.0263 66.9439 61.9874 67.0119 61.9874 67.0119L61.968 67.0605L61.8417 67.0702L61.7058 67.0605C61.7058 67.0605 61.6572 66.9245 61.6669 66.8856C61.6766 66.8468 61.6475 66.74 61.6281 66.7011C61.6086 66.6623 61.5795 66.6234 61.5309 66.6234C61.4824 66.6234 61.3852 66.6234 61.3852 66.6234L61.2784 66.6525L61.1036 66.7788L60.987 66.8662L60.8122 67.0896L60.6568 67.2256L60.5305 67.5267L60.4528 67.6821L60.2974 67.7598L60.1129 67.7501L59.8992 67.6627L59.7438 67.5364L59.6564 67.4684H59.5787C59.5787 67.4684 59.5107 67.4684 59.4718 67.4684C59.433 67.4684 59.365 67.4781 59.365 67.4781L59.297 67.4587C59.297 67.4587 59.2193 67.4587 59.1902 67.4101C59.161 67.3616 59.1319 67.3324 59.1319 67.3324L59.0153 67.2644C59.0153 67.2644 59.025 67.2742 58.9279 67.2062C58.8308 67.1382 58.7142 67.0702 58.7142 67.0702C58.7142 67.0702 58.6268 67.0119 58.6171 66.9731C58.6074 66.9342 58.452 66.7302 58.452 66.7302L58.2966 66.4291L58.2189 66.1863L58.1995 65.9435L58.2092 65.7201L58.1509 65.555L58.0343 65.4384C58.0343 65.4384 57.9081 65.3899 57.8886 65.3413C57.8692 65.2928 57.8498 65.1956 57.8498 65.1956L57.9178 65.0985C57.9178 65.0985 57.9761 65.0499 58.0343 65.0305C58.0926 65.0111 58.112 64.9917 58.112 64.9917C58.112 64.9917 58.1315 64.9625 58.1315 64.9042C58.1315 64.846 58.1315 64.7683 58.1315 64.7683L58.0538 64.5934C58.0538 64.5934 58.0343 64.4963 58.0246 64.4574C58.0149 64.4186 57.8401 64.0981 57.8401 64.0981L57.6361 63.9427L57.4807 63.7678L57.3933 63.661L57.3447 63.3793L57.3544 63.0394L57.3642 62.6509L57.3544 62.4566Z" fill="#010101" stroke="black" stroke-width="0.0770932"/>
<path d="M60.9969 67.6241L60.8998 67.5367L60.8804 67.4007L60.9095 67.2551L60.9484 67.1968L61.0649 67.2259L61.1232 67.3328V67.459L61.1038 67.5562L61.0552 67.6339L60.9969 67.6241V67.6241Z" stroke="black" stroke-width="0.0770932"/>
<path d="M45.0105 52.512L45.1854 52.3178L45.3116 52.1721L45.4865 52.0653L45.6613 52.0458L45.7681 51.9973H46.0207L46.2732 51.9875L46.4383 52.0361C46.4383 52.0361 46.5549 52.0653 46.652 52.0944C46.7491 52.1235 46.7783 52.1332 46.8171 52.1332C46.856 52.1332 46.9337 52.1332 46.9337 52.1332L47.0405 52.1624L47.0891 52.2207L47.0599 52.3566C47.0599 52.3566 47.0114 52.4732 46.9725 52.4926C46.9337 52.512 46.8365 52.5606 46.8365 52.5606L46.7297 52.648C46.7297 52.648 46.7783 52.6966 46.7006 52.716C46.6229 52.7354 46.5743 52.7451 46.5743 52.7451L46.4675 52.6869V52.6383L46.3412 52.6286H46.2246L46.1372 52.716L45.6904 52.6966L45.2825 52.7063L45.1174 52.648L44.9911 52.5995L44.9717 52.5606L45.0105 52.512Z" fill="#008000" stroke="black" stroke-width="0.0770932"/>
</svg>
