<svg width="24" height="24" viewBox="0 0 24 24" fill="none" xmlns="http://www.w3.org/2000/svg">
<path d="M5.35354 5.35355C5.5488 5.15829 5.86538 5.15829 6.06065 5.35355L18.0815 17.3744C18.2767 17.5696 18.2767 17.8862 18.0815 18.0815C17.8862 18.2767 17.5696 18.2767 17.3744 18.0815L5.35354 6.06066C5.15828 5.8654 5.15828 5.54882 5.35354 5.35355Z" fill="#010101"/>
<path d="M5.35355 18.0816C5.15829 17.8863 5.15829 17.5697 5.35355 17.3745L17.3744 5.35366C17.5696 5.1584 17.8862 5.1584 18.0815 5.35366C18.2767 5.54892 18.2767 5.8655 18.0815 6.06077L6.06066 18.0816C5.8654 18.2768 5.54882 18.2768 5.35355 18.0816Z" fill="#010101"/>
</svg>
