<svg width="63" height="74" viewBox="0 0 63 74" fill="none" xmlns="http://www.w3.org/2000/svg">
<path d="M47.5978 60.4445C47.1262 59.2766 46.1008 58.5693 45.1521 57.8126C43.3369 56.3815 42.4869 54.5227 41.0995 52.6693C38.4289 49.1108 35.7966 48.6008 31.6015 48.5295C29.3751 48.8695 27.7299 48.6063 25.7612 50.0703C24.0009 51.3808 22.6464 53.1793 21.3742 54.9284C20.3158 56.365 19.0984 57.3794 17.9139 58.6789C13.7352 63.2574 18.4623 72.0195 23.8748 73.0613C25.6236 73.3119 27.4019 72.8821 28.8432 71.8605C29.4738 71.4493 31.3767 69.0531 31.9635 68.9928C32.3089 68.9544 32.7093 69.5411 33.0986 69.8865C34.3229 71.0526 35.7627 71.9689 37.3376 72.5843C43.3753 74.7556 49.8846 66.1525 47.5978 60.4445Z" fill="black"/>
<path d="M46.6555 65.5062C44.7855 69.0813 41.8901 72.2231 37.6017 70.8523C36.3484 70.4208 35.1795 69.7752 34.1469 68.9442C33.8233 68.6974 32.5346 67.1786 32.1563 67.1457C31.6079 67.0963 29.3321 69.7283 28.5753 70.1834C25.2028 72.2122 21.9344 71.2032 19.4612 68.3081C18.2054 66.8496 16.0283 64.1683 16.7851 62.0628C17.169 61.0045 18.2164 60.193 19.017 59.4473C21.6822 56.9579 23.2505 53.4158 26.4257 51.4419C28.1695 50.3452 29.716 50.6468 31.6024 50.3452C34.0317 50.3836 36.4117 50.2356 38.4791 51.7325C41.1717 53.679 42.0655 57.0786 44.5113 59.1567C45.2822 59.6882 46.0151 60.2726 46.7049 60.9058C48.021 62.3918 47.5 63.8996 46.6555 65.5062Z" fill="white"/>
<path d="M62.6351 8.6563C61.1819 2.21355 52.5832 -0.665118 47.1652 2.07648C38.6872 6.41368 35.1008 14.7152 32.156 23.1977C32.1503 23.1195 32.1356 23.0422 32.1121 22.9674C29.5511 15.5432 26.5131 8.53567 19.7515 4.01752C16.1706 1.62685 12.2168 -0.155182 8.01616 1.65975C5.6683 2.68991 3.63455 4.32239 2.12104 6.39174C-0.845709 10.6138 1.44653 17.7803 3.44264 21.8269C5.82811 26.674 10.451 30.3533 14.3006 34.0051C19.8941 39.2854 25.5315 44.478 31.3334 49.5005C31.3334 49.7692 31.3773 49.9721 31.4266 49.9721C31.476 49.9721 31.4869 49.8405 31.5034 49.6486L31.8105 49.9173C31.8105 49.9173 31.8105 49.9721 31.8105 49.9831L31.8653 49.9392L32.0024 50.0598C31.964 50.0269 31.9585 49.9502 31.9585 49.857L32.2656 49.5883C32.2656 49.8515 32.3095 50.0544 32.3589 50.0544C32.4082 50.0544 32.4411 49.7692 32.4521 49.4238C37.4424 45.0647 42.3778 40.563 47.2475 36.0119C51.2506 32.2669 56.1093 28.4616 59.1474 23.8392C61.8728 19.6885 63.7647 13.6624 62.6351 8.6563Z" fill="black"/>
<path d="M61.7684 16.2776C61.0001 18.8635 59.7518 21.2816 58.0887 23.4057C54.7052 27.4962 50.5595 31.0822 46.6879 34.6956C41.8292 39.2576 36.8938 43.7593 31.8322 48.113C23.1842 40.6394 14.3443 33.0013 6.59013 24.5408C2.89403 20.5325 -1.30658 12.1652 2.81726 7.4058C4.38 5.53758 6.39406 4.0994 8.6685 3.22761C12.414 1.91165 15.8249 3.39211 19.011 5.36606C26.0084 9.7526 29.2219 16.623 31.8432 24.1076L31.6457 24.6559C31.4757 25.1549 31.7883 26.1309 31.6896 26.4215C34.086 19.4688 36.5373 12.1652 42.2844 7.23034C45.0647 4.7958 48.7608 2.35579 52.5885 2.6135C55.4401 2.81089 57.9626 4.39553 59.9752 6.3311C62.8871 9.133 62.9913 12.4503 61.7684 16.2776Z" fill="white"/>
<path d="M23.8203 65.1008C23.8642 65.1008 23.93 66.1097 23.8203 66.1207C21.0714 66.3432 18.3843 67.0544 15.8852 68.2207C14.5472 68.8787 12.5456 69.7725 11.9259 71.2584C11.9862 71.1158 11.7888 70.5456 11.9259 70.2769C12.4743 68.9555 14.1578 68.0836 15.3642 67.4695C18.0186 66.1808 20.8826 65.3785 23.8203 65.1008ZM52.8846 70.3043C52.3362 68.9555 50.6527 68.1439 49.4462 67.5024C46.8 66.1702 43.9212 65.3622 40.9682 65.1227C40.9244 65.1227 40.8585 66.1316 40.9682 66.1426C43.7087 66.4065 46.3875 67.1178 48.8978 68.2481C50.2359 68.8568 52.243 69.8328 52.8572 71.2858C52.7968 71.1433 53.0162 70.5675 52.901 70.2879L52.8846 70.3043ZM23.5077 64.5305C23.5845 64.1949 23.5845 63.8463 23.5077 63.5107C20.5436 63.3344 17.5719 63.691 14.7336 64.5634C13.4504 64.9637 11.6956 65.5833 10.9443 66.7951C10.8017 67.0254 11.0375 67.6724 10.9443 67.7766C11.7998 66.3948 13.911 65.83 15.3313 65.3804C17.9852 64.6162 20.7534 64.3285 23.5077 64.5305ZM54.442 66.6525C53.6743 65.4133 51.9414 64.8705 50.6472 64.4154C47.8175 63.5033 44.838 63.1477 41.8731 63.3681C41.7963 63.7037 41.7963 64.0523 41.8731 64.388C44.6098 64.2316 47.3539 64.5167 50.0001 65.2324C51.4314 65.6272 53.5701 66.2852 54.3871 67.634C54.3433 67.5463 54.5791 66.8828 54.442 66.6525ZM34.2615 62.3702C33.5815 62.3702 32.5231 63.3242 32.1228 63.7135C31.7444 63.3516 30.7848 62.4853 30.039 62.5237C29.9275 62.5278 29.8181 62.5553 29.718 62.6044C29.6178 62.6535 29.5291 62.7232 29.4577 62.8088C29.3853 62.8896 29.3332 62.9864 29.3056 63.0912C29.2779 63.1961 29.2755 63.306 29.2986 63.412C29.4357 64.1522 30.6806 64.9089 31.0754 65.1337C31.1028 65.682 31.2235 67.2502 31.7444 67.6724C31.8359 67.7518 31.9524 67.7964 32.0735 67.7985H32.1612C32.9783 67.6669 33.0715 65.7478 33.0825 65.1282C33.4828 64.8815 34.7825 64.0316 34.9031 63.2255C34.9231 63.1063 34.9146 62.9841 34.8784 62.8689C34.8422 62.7536 34.7792 62.6485 34.6947 62.5621C34.6409 62.499 34.5734 62.4489 34.4974 62.4157C34.4214 62.3825 34.3389 62.3669 34.256 62.3702H34.2615ZM27.1325 54.8088C26.5842 54.8088 26.14 55.6807 26.14 56.7992C26.14 57.9178 26.5677 58.7896 27.1325 58.7896C27.6974 58.7896 28.1196 57.9178 28.1196 56.7992C28.1196 55.6807 27.6535 54.8088 27.0996 54.8088H27.1325ZM36.307 54.8088C35.7586 54.8088 35.3144 55.6807 35.3144 56.7938C35.3144 57.9068 35.7421 58.7896 36.307 58.7896C36.8718 58.7896 37.2941 57.9343 37.2941 56.7938C37.2941 55.6533 36.8279 54.8198 36.2741 54.8198L36.307 54.8088Z" fill="black"/>
<path d="M6.27767 8.90845C-2.97903 14.94 29.3097 44.4724 32.0517 44.4724C34.7936 44.4724 66.7149 15.9927 56.7289 7.85568C44.0228 -2.51303 31.6294 34.2572 31.6294 34.2572C31.6294 34.2572 21.3143 -1.8057 6.27767 8.90845Z" fill="black"/>
</svg>
