<svg width="21" height="22" viewBox="0 0 21 22" fill="none" xmlns="http://www.w3.org/2000/svg">
<g clip-path="url(#clip0_552_1808)">
<path d="M19.938 0.693359H0.866726C0.388217 0.693359 0 1.08158 0 1.56009V20.6314C0 21.1099 0.388217 21.4981 0.866726 21.4981H11.1127V13.4413H8.40096V10.3014H11.1122V7.98584C11.1122 5.2987 12.7533 3.83571 15.1504 3.83571C16.2989 3.83571 17.2854 3.92101 17.5729 3.95929V6.76793L15.9106 6.76835C14.607 6.76835 14.3545 7.38792 14.3545 8.29708V10.3014H17.4635L17.0599 13.4413H14.3553V21.4981H19.9384C20.417 21.4981 20.8052 21.1099 20.8052 20.6314V1.56009C20.8048 1.08158 20.4165 0.693359 19.938 0.693359Z" fill="#010101"/>
</g>
<defs>
<clipPath id="clip0_552_1808">
<rect width="20.8048" height="20.8048" fill="white" transform="translate(0 0.693359)"/>
</clipPath>
</defs>
</svg>
