<svg width="66" height="39" viewBox="0 0 66 39" fill="none" xmlns="http://www.w3.org/2000/svg">
<g clip-path="url(#clip0_28_45)">
<path d="M61.2477 3.01392L61.1829 1.58775C61.1671 1.2865 61.1743 0.963432 61.1585 0.569052H61.1455C61.0635 0.906677 60.9584 1.28359 60.8706 1.58775L60.4389 2.96153H59.8805L59.5005 1.56737C59.4271 1.27632 59.3494 0.918319 59.2602 0.571963H59.2444C59.2444 0.925595 59.2444 1.27195 59.2242 1.57319L59.1494 3.01392H58.4888L58.6903 0.0204122H59.6833L60.0114 1.18463C60.0863 1.44804 60.1453 1.74928 60.2216 2.04325H60.2345C60.318 1.74201 60.3928 1.43203 60.4734 1.17008L60.8332 0.00585938H61.7644L61.9587 2.99937L61.2477 3.01392ZM58.3175 0.0204122V0.624353H57.4813V3.01392H56.7617V0.624353H55.9414V0.0204122H58.3175Z" fill="#231F20"/>
<path d="M3.50444 31.9521V35.001H0.918206V31.9521H0V38.8982H0.918206V35.6165H3.50444V38.8982H4.42264V31.9521H3.50444Z" fill="#231F20"/>
<path d="M11.0935 33.6286C11.0022 33.3558 10.9352 33.0753 10.8935 32.7904H10.8733C10.825 33.0748 10.7553 33.355 10.6647 33.6286L9.84576 36.2641H11.8923L11.0935 33.6286ZM12.691 38.8982L12.042 36.8186H9.68601L9.01678 38.8967H8.17773L10.5064 31.9521H11.3267L13.6438 38.8982H12.691Z" fill="#231F20"/>
<path d="M18.344 31.9521H17.4258V38.8982H18.344V31.9521Z" fill="#231F20"/>
<path d="M24.4236 32.3967C24.1561 32.3793 23.8886 32.4294 23.645 32.5422V35.4528C23.8382 35.4961 24.0357 35.5166 24.2336 35.5139C25.3519 35.5139 25.8916 34.9478 25.8916 33.9495C25.8916 32.8886 25.4325 32.3938 24.4236 32.3938V32.3967ZM25.9218 38.896L23.6651 35.6551H23.645V38.896H22.7383V32.225C23.2692 31.9632 23.8547 31.8349 24.4452 31.851C26.0024 31.851 26.8026 32.6179 26.8026 33.9116C26.8026 35.0919 25.9722 35.8035 24.7157 35.8195V35.8399L26.9609 38.896H25.9218Z" fill="#231F20"/>
<path d="M33.2241 39.0017C31.5748 39.0017 30.6465 37.4009 30.6465 35.4275C30.6465 33.4978 31.5647 31.8519 33.2241 31.8519C33.6991 31.8301 34.1684 31.9649 34.5611 32.2361L34.3409 32.7804C34.0536 32.6002 33.7219 32.5058 33.3838 32.5082C32.0641 32.5082 31.605 33.9533 31.605 35.4275C31.605 36.9308 32.1145 38.3046 33.3723 38.3046C33.7115 38.3127 34.0453 38.2179 34.3308 38.0325L34.5712 38.6146C34.1734 38.8829 33.7019 39.0174 33.2241 38.9988" fill="#231F20"/>
<path d="M40.7825 33.6291C40.6911 33.3563 40.6242 33.0758 40.5824 32.7909H40.5637C40.5143 33.0752 40.4441 33.3553 40.3536 33.6291L39.5333 36.2646H41.5812L40.7825 33.6291ZM42.38 38.8987L41.7367 36.8191H39.3735L38.7057 38.8972H37.8652L40.1938 31.9512H41.0171L43.3342 38.8972L42.38 38.8987Z" fill="#231F20"/>
<path d="M48.7888 32.3967C48.5209 32.3794 48.2529 32.4293 48.0088 32.5422V35.4528C48.2025 35.4959 48.4005 35.5164 48.5988 35.5139C49.7171 35.5139 50.2568 34.9478 50.2568 33.9495C50.2568 32.8886 49.7962 32.3938 48.7888 32.3938V32.3967ZM50.2856 38.896L48.0318 35.6551H48.0116V38.896H47.1035V32.225C47.6344 31.9632 48.22 31.8349 48.8104 31.851C50.369 31.851 51.1678 32.6179 51.1678 33.9116C51.1678 35.0919 50.3388 35.8035 49.081 35.8195V35.8399L51.3275 38.896H50.2856Z" fill="#231F20"/>
<path d="M55.293 31.9521V38.8982H58.4779V38.2724H56.2112V35.6165H58.2491V35.001H56.2112V32.5779H58.4779V31.9521H55.293Z" fill="#231F20"/>
<path d="M20.0051 26.1367V13.2182C20.0051 11.4195 19.1416 9.7881 16.5798 9.7881C15.0975 9.7881 13.9461 10.2887 12.9257 11.3889V26.1367H10.0214V13.0843C10.0214 11.0877 8.70599 9.75608 6.13559 9.75608C4.68776 9.75608 3.89764 9.95545 2.94202 10.3542V26.1367H0.0449219V9.12303C1.6597 8.32263 3.3709 7.8584 6.20323 7.8584C8.9377 7.8584 10.5813 8.69082 11.6362 10.0239C12.8537 8.72283 14.6657 7.8584 17.1353 7.8584C21.3824 7.8584 22.8921 10.6569 22.8921 13.1527V26.1367H20.0051Z" fill="#231F20"/>
<path d="M33.8635 26.5032C29.4178 26.5032 27.5742 24.2388 27.5742 20.6428V8.19141H30.4728V20.7432C30.4728 22.8402 31.591 24.4381 34.0276 24.4381C35.4106 24.4381 36.3979 24.2053 37.2226 23.7105V8.19141H40.1197V25.0726C38.8028 25.8381 36.7275 26.5046 33.8635 26.5046" fill="#231F20"/>
<path d="M45.6172 0V26.1383H48.4495V16.8812H48.5157L55.2972 26.1383H58.5901L51.148 16.5814L57.8662 8.19176H54.8367L48.5157 16.5145H48.4495V0H45.6172Z" fill="#231F20"/>
<path d="M64.1246 26.2685C63.6181 26.2685 63.1324 26.065 62.7742 25.7029C62.4161 25.3407 62.2148 24.8495 62.2148 24.3374C62.2165 24.0861 62.2674 23.8376 62.3644 23.6063C62.4615 23.375 62.6028 23.1653 62.7803 22.9895C62.9579 22.8136 63.168 22.675 63.3987 22.5817C63.6295 22.4883 63.8762 22.442 64.1246 22.4455C64.3709 22.4436 64.615 22.4912 64.8429 22.5856C65.0707 22.6799 65.2778 22.8192 65.4519 22.9953C65.626 23.1713 65.7637 23.3807 65.8571 23.6111C65.9504 23.8415 65.9975 24.0884 65.9956 24.3374C65.9992 24.5887 65.9536 24.8382 65.8613 25.0716C65.769 25.305 65.632 25.5176 65.458 25.6971C65.2841 25.8767 65.0767 26.0196 64.8479 26.1177C64.619 26.2157 64.3732 26.267 64.1246 26.2685Z" fill="#231F20"/>
</g>
<defs>
<clipPath id="clip0_28_45">
<rect width="66" height="39" fill="white"/>
</clipPath>
</defs>
</svg>
