<svg width="89" height="60" viewBox="0 0 89 60" fill="none" xmlns="http://www.w3.org/2000/svg">
<path d="M10.9571 59.2729H6.28045V58.6034C6.56984 58.6146 6.85939 58.5852 7.14058 58.5158C7.22638 58.494 7.30134 58.4417 7.35154 58.3688C7.40174 58.2959 7.42378 58.2072 7.41356 58.1193C7.41097 57.966 7.38133 57.8143 7.326 57.6712L6.8573 56.5022H3.63823L3.39615 57.146C3.28571 57.3941 3.21614 57.6584 3.19013 57.9287C3.17394 58.0464 3.19894 58.1661 3.26089 58.2675C3.32284 58.3688 3.41794 58.4456 3.53006 58.4849C3.78625 58.5673 4.05417 58.6073 4.32325 58.6034V59.2729H0.908447V58.6034C1.14947 58.6106 1.38848 58.5575 1.60377 58.4489C1.83252 58.3048 2.02049 58.1044 2.14972 57.8669C2.36964 57.4803 2.55576 57.0754 2.70598 56.6567L5.56967 49.1636H6.26499L9.28835 56.8885C9.50467 57.4343 9.66948 57.8051 9.76734 58.0008C9.86511 58.1859 10.0133 58.3395 10.1948 58.4437C10.4303 58.5636 10.6934 58.6187 10.9571 58.6034V59.2729ZM6.59463 55.7812L5.22459 52.3205L3.9112 55.7864L6.59463 55.7812Z" fill="black"/>
<path d="M20.7837 51.9947C20.8079 52.3406 20.7527 52.6874 20.6223 53.0087C20.492 53.3301 20.29 53.6174 20.0317 53.8487C19.5239 54.2757 18.9098 54.5569 18.2548 54.6624C17.5471 54.784 16.8302 54.8443 16.1122 54.8426H15.4529V57.4176C15.4444 57.6478 15.4758 57.8778 15.5456 58.0974C15.5844 58.1841 15.6412 58.2615 15.7123 58.3245C15.7833 58.3876 15.867 58.4348 15.9577 58.463C16.2672 58.5604 16.5915 58.6023 16.9157 58.5866V59.2716H11.9248V58.6021C12.243 58.6179 12.5612 58.5724 12.8622 58.4682C12.9504 58.4372 13.0312 58.3883 13.0994 58.3244C13.1677 58.2606 13.222 58.1833 13.2588 58.0974C13.3284 57.8831 13.3598 57.6582 13.3515 57.433V51.1656C13.3594 50.9425 13.3298 50.7197 13.2639 50.5064C13.2267 50.4202 13.1723 50.3425 13.1041 50.2778C13.036 50.2132 12.9554 50.1631 12.8674 50.1305C12.5644 50.0268 12.2446 49.9814 11.9248 49.9966V49.3065L14.7576 49.2344H15.2366H16.6581C17.219 49.258 17.7779 49.3148 18.3321 49.4043C18.9279 49.517 19.4879 49.7714 19.9648 50.1459C20.2406 50.3649 20.4591 50.6476 20.6018 50.9696C20.7444 51.2916 20.8068 51.6433 20.7837 51.9947ZM18.5329 51.9947C18.5329 51.2016 18.3012 50.6764 17.8428 50.4086C17.2791 50.1221 16.6512 49.9855 16.0195 50.012H15.4529V53.9981H16.1225C16.7264 54.0227 17.3268 53.8952 17.8685 53.6273C18.3321 53.411 18.5329 52.8599 18.5329 52.0102V51.9947Z" fill="black"/>
<path d="M30.9155 51.9947C30.9397 52.3406 30.8845 52.6874 30.7542 53.0087C30.6239 53.3301 30.4219 53.6174 30.1636 53.8487C29.6558 54.2757 29.0417 54.5569 28.3866 54.6624C27.679 54.784 26.9621 54.8443 26.244 54.8426H25.5848V57.4176C25.5762 57.6478 25.6076 57.8778 25.6775 58.0974C25.7163 58.1841 25.7731 58.2615 25.8441 58.3245C25.9152 58.3876 25.9988 58.4348 26.0895 58.463C26.3991 58.56 26.7234 58.6018 27.0475 58.5866V59.2716H22.0566V58.6021C22.3748 58.6179 22.693 58.5724 22.994 58.4682C23.0822 58.4372 23.163 58.3883 23.2313 58.3244C23.2996 58.2606 23.3538 58.1833 23.3906 58.0974C23.4603 57.8831 23.4916 57.6582 23.4833 57.433V51.1656C23.4913 50.9425 23.4617 50.7197 23.3958 50.5064C23.3585 50.4202 23.3041 50.3425 23.236 50.2778C23.1678 50.2132 23.0873 50.1631 22.9992 50.1305C22.6963 50.0268 22.3765 49.9814 22.0566 49.9966V49.3065L24.8894 49.2344H25.3684H26.79C27.3508 49.258 27.9098 49.3148 28.4639 49.4043C29.0597 49.517 29.6197 49.7714 30.0966 50.1459C30.3724 50.3649 30.591 50.6476 30.7336 50.9696C30.8762 51.2916 30.9387 51.6433 30.9155 51.9947ZM28.6648 51.9947C28.6648 51.2016 28.433 50.6764 27.9746 50.4086C27.411 50.1221 26.783 49.9855 26.1513 50.012H25.5848V53.9981H26.2543C26.8582 54.0227 27.4586 53.8952 28.0004 53.6273C28.4433 53.411 28.6648 52.8599 28.6648 52.0102V51.9947Z" fill="black"/>
<path d="M42.8898 59.2716H40.2373C40.1073 59.1219 39.9852 58.9654 39.8716 58.8029C39.7274 58.5969 39.5729 58.3549 39.4029 58.0819C39.2329 57.809 39.0887 57.5669 38.9754 57.397L38.3058 56.2846C38.1017 55.9258 37.8728 55.5816 37.6208 55.2546C37.4901 55.0856 37.3101 54.9615 37.1058 54.8993C36.7743 54.8409 36.4378 54.8167 36.1014 54.8272H35.7306V57.4022C35.7216 57.6236 35.7512 57.8449 35.8181 58.0562C35.8539 58.1465 35.9095 58.2276 35.9808 58.2936C36.0521 58.3595 36.1373 58.4086 36.2302 58.4373C36.5353 58.5392 36.8565 58.5846 37.1779 58.5712V59.2716H32.187V58.6021C32.5939 58.6548 33.0063 58.5618 33.351 58.3394C33.5525 58.0827 33.6467 57.7578 33.6137 57.433V51.1656C33.6461 50.8441 33.556 50.5223 33.3613 50.2644C33.0145 50.0379 32.5973 49.9446 32.187 50.0017V49.3065L34.4842 49.2344H35.0868H35.7203H36.4723C36.9873 49.2344 37.4303 49.2807 37.8577 49.3219C38.2049 49.3526 38.5492 49.4094 38.8879 49.4919C39.2544 49.5886 39.6025 49.7452 39.918 49.9554C40.2492 50.169 40.5246 50.4585 40.7214 50.8C40.9339 51.1731 41.0424 51.5963 41.0356 52.0256C41.0352 52.3586 40.9613 52.6874 40.8193 52.9887C40.6607 53.3204 40.4217 53.6072 40.124 53.823C39.7447 54.0962 39.3162 54.2938 38.8621 54.4049C39.209 54.6068 39.5162 54.8704 39.7686 55.1825C40.0158 55.4915 40.4073 56.058 40.9378 56.8923C41.1737 57.2619 41.4281 57.6194 41.7 57.9635C41.8323 58.159 42.0091 58.3203 42.216 58.434C42.4229 58.5478 42.6538 58.6107 42.8898 58.6175V59.2716ZM38.7694 51.9896C38.7694 51.1965 38.5273 50.6764 38.0483 50.4137C37.4611 50.1326 36.8137 49.9999 36.1632 50.0275H35.7048V54.0135H36.1632C36.8005 54.0345 37.4344 53.9113 38.0174 53.653C38.5273 53.4316 38.7797 52.8702 38.7797 51.9947L38.7694 51.9896Z" fill="black"/>
<path d="M54.4372 54.3137C54.4409 55.2008 54.2194 56.0744 53.7934 56.8526C53.3488 57.6526 52.6862 58.3098 51.8825 58.7478C50.9689 59.2396 49.9428 59.4845 48.9055 59.4585C48.0576 59.4764 47.2148 59.3222 46.4281 59.0053C45.763 58.7351 45.1665 58.3199 44.6821 57.7899C44.2442 57.3036 43.9049 56.7369 43.6829 56.1213C43.4698 55.5371 43.36 54.9202 43.3584 54.2983C43.3557 53.4275 43.568 52.5696 43.9765 51.8005C44.4054 50.9998 45.0564 50.34 45.8513 49.9002C46.7677 49.4002 47.8001 49.1514 48.8437 49.1792C49.7702 49.1521 50.6913 49.3279 51.5426 49.6942C52.2199 49.9954 52.8152 50.4545 53.2783 51.0332C53.6755 51.526 53.9777 52.0883 54.1694 52.6915C54.3366 53.2164 54.4269 53.7629 54.4372 54.3137ZM52.0628 54.288C52.0653 53.7578 52.0187 53.2285 51.9237 52.7069C51.8329 52.2304 51.6585 51.7736 51.4087 51.3577C51.1739 50.9554 50.8361 50.623 50.4301 50.3946C49.9538 50.1467 49.4216 50.0261 48.8849 50.0444C48.1744 50.0004 47.473 50.2226 46.9174 50.6676C46.453 51.0771 46.1198 51.6145 45.9594 52.2125C45.7845 52.885 45.6997 53.5777 45.7071 54.2725C45.7082 54.6994 45.734 55.1258 45.7843 55.5497C45.8477 56.0212 45.9796 56.481 46.1758 56.9144C46.3874 57.39 46.726 57.798 47.1544 58.0938C47.6699 58.4323 48.279 58.5999 48.8952 58.5727C49.5113 58.5951 50.1177 58.4142 50.6207 58.0577C51.045 57.7494 51.3792 57.3333 51.589 56.8526C51.7773 56.4175 51.9038 55.9581 51.965 55.4879C52.0203 55.0901 52.0529 54.6895 52.0628 54.288Z" fill="black"/>
<path d="M65.9433 50.0277C65.7355 50.0286 65.529 50.0598 65.3303 50.1204C65.1673 50.1743 65.0204 50.2681 64.9029 50.3933C64.7693 50.5507 64.6552 50.7236 64.5629 50.9083C64.4548 51.1246 64.2951 51.4593 64.0994 51.9383L60.8649 59.4829H60.185L56.8011 51.5469C56.6623 51.1926 56.4988 50.8484 56.3118 50.5169C56.2034 50.3392 56.0383 50.2031 55.8431 50.1307C55.561 50.0466 55.2668 50.01 54.9727 50.0225V49.353H60.0202V50.0277C59.6857 50.0295 59.3524 50.0675 59.0261 50.141C58.9357 50.1712 58.8585 50.2319 58.8078 50.3126C58.757 50.3934 58.7359 50.4893 58.748 50.5839C58.7534 50.8275 58.8132 51.0668 58.9231 51.2842L61.2048 56.5887L63.3165 51.6344C63.4544 51.3561 63.5449 51.0567 63.5843 50.7487C63.5843 50.4345 63.4762 50.2337 63.2547 50.1564C62.9332 50.0651 62.6 50.0217 62.2658 50.0277V49.353H65.9433V50.0277Z" fill="black"/>
<path d="M75.8744 56.0119L75.7972 59.2769H66.9537V58.6023C67.3655 58.6552 67.7828 58.5623 68.1332 58.3396C68.3347 58.0829 68.4288 57.758 68.3959 57.4333V51.1967C68.3998 50.9659 68.365 50.7361 68.2928 50.5169C68.2552 50.4315 68.2007 50.3546 68.1326 50.2909C68.0644 50.2271 67.984 50.1779 67.8963 50.1461C67.5871 50.0388 67.2598 49.9933 66.9331 50.0122V49.353H75.1739L75.3027 51.928H74.628C74.5378 51.4898 74.3628 51.0734 74.1129 50.7023C73.9499 50.4796 73.7154 50.3197 73.4485 50.2491C73.0815 50.1835 72.7087 50.1558 72.336 50.1667H70.4818V53.6687H71.5119C71.7724 53.6787 72.0329 53.6492 72.2845 53.5811C72.3666 53.5527 72.4415 53.5067 72.5038 53.4462C72.5661 53.3856 72.6143 53.3122 72.645 53.2309C72.7287 52.9709 72.7755 52.7005 72.7841 52.4275H73.4846V55.7235H72.8099C72.8098 55.4476 72.7609 55.1739 72.6656 54.9149C72.632 54.8343 72.5815 54.7618 72.5175 54.7023C72.4536 54.6428 72.3776 54.5977 72.2948 54.5699C72.0432 54.5018 71.7827 54.4723 71.5222 54.4823H70.4921V56.8153C70.4921 57.2067 70.4921 57.4899 70.4921 57.6701C70.5048 57.8326 70.5599 57.9888 70.6518 58.1233C70.7556 58.2563 70.9036 58.3476 71.069 58.3808C71.3387 58.4452 71.6159 58.4729 71.8931 58.4632H72.6862C73.0118 58.466 73.336 58.4226 73.6494 58.3345C74.0076 58.2099 74.32 57.9802 74.5456 57.6753C74.8931 57.1842 75.1062 56.6107 75.1636 56.0119H75.8744Z" fill="black"/>
<path d="M87.7264 54.4C87.7379 55.067 87.6135 55.7294 87.3607 56.3467C87.1438 56.8844 86.8236 57.3743 86.4182 57.7887C86.0633 58.1526 85.6442 58.4476 85.182 58.659C84.1027 59.1 82.943 59.3105 81.7775 59.277H77.2502V58.6024C77.5709 58.6165 77.8916 58.5747 78.1979 58.4788C78.29 58.4524 78.3754 58.4066 78.4482 58.3444C78.5211 58.2822 78.5798 58.2051 78.6203 58.1183C78.6956 57.8981 78.7288 57.6658 78.7181 57.4333V51.1659C78.7511 50.8412 78.657 50.5163 78.4555 50.2595C78.096 50.0358 77.6702 49.943 77.2502 49.9969V49.3068L79.3774 49.2656H80.2684H81.1801C81.8692 49.2587 82.5579 49.3035 83.2403 49.3995C83.7702 49.4786 84.2889 49.6203 84.7854 49.8218C85.2311 49.9845 85.6469 50.2194 86.0164 50.517C86.3777 50.8258 86.6887 51.1889 86.9384 51.5933C87.1943 52.001 87.3902 52.4432 87.5204 52.9066C87.6607 53.3919 87.7301 53.8949 87.7264 54.4ZM85.3572 54.3588C85.3867 53.4643 85.1845 52.5772 84.77 51.7839C84.4213 51.1294 83.8546 50.6175 83.1682 50.3368C82.8699 50.2179 82.5558 50.1433 82.2359 50.1153C81.765 50.0745 81.2922 50.0573 80.8196 50.0638V57.0368C80.8124 57.3297 80.8313 57.6227 80.8762 57.9123C80.8964 58.0042 80.9383 58.09 80.9983 58.1626C81.0583 58.2351 81.1348 58.2923 81.2213 58.3294C81.5021 58.443 81.8048 58.4923 82.1072 58.4736C83.2918 58.4736 84.1296 58.0582 84.6206 57.2274C85.1228 56.3561 85.3775 55.3642 85.3572 54.3588Z" fill="black"/>
<path d="M20.7332 0.635331C19.6 0.563232 10.6381 0.635331 10.6381 0.635331L2.27368 31.7718H9.20114L12.1524 21.2608H12.2245C16.86 21.6676 27.1043 21.7758 28.5825 10.3738C29.6075 2.29876 23.8698 0.841328 20.7332 0.635331ZM19.5588 13.6492C17.2102 15.8482 13.8933 15.0809 13.8933 15.0809L14.8152 11.6047L16.0977 6.96973C16.5715 6.91823 19.9451 6.57319 20.8928 7.33538C21.8405 8.09757 21.1607 12.1557 19.5588 13.6492ZM47.3717 1.07822C41.4486 -0.796347 36.5556 3.65319 33.1665 7.87097C29.8547 12.4081 27.7121 17.4035 27.604 23.2744C27.7533 26.5806 28.5826 30.2731 32.0489 31.5864C37.5548 32.9356 41.634 28.6252 44.6419 24.8142C44.8118 24.567 45.3784 23.743 45.8574 22.9499C45.8574 22.9499 45.8574 22.9499 45.8574 22.919L45.1312 22.4555C44.4991 23.38 43.8057 24.2609 43.0555 25.0923C41.0623 26.936 38.6209 28.4346 35.7263 27.7703C32.8317 27.1059 32.2394 21.9097 32.7081 19.7261C33.1768 17.5425 33.5889 16.2035 33.6867 16.1829C35.0877 15.8945 46.1613 13.505 49.0868 9.17905C50.1169 7.42293 50.9925 4.82737 49.6997 2.891C49.1419 2.04932 48.3244 1.4128 47.3717 1.07822ZM39.2441 13.0827C35.886 14.1436 34.722 14.4217 34.3717 14.4474L34.4645 14.159C34.9383 12.8252 39.5583 0.125489 44.3019 1.71166C49.3649 3.39569 45.6823 11.0485 39.2441 13.0827ZM79.4749 0.563232L64.6517 31.7821H72.3774L74.6334 26.8278H81.602V31.8078H88.3801V0.563232H79.4749ZM81.602 20.5707H77.4816L81.602 11.5274L81.6329 11.409L81.602 20.5707ZM65.5066 7.25813L58.7183 31.7821H51.183L57.75 7.25813H51.5693L53.4699 0.563232H73.9947L72.2023 7.25813H65.5066Z" fill="black"/>
<path d="M88.2914 39.1562H1.27332V40.1347H88.2914V39.1562Z" fill="black"/>
</svg>
