<svg width="59" height="72" viewBox="0 0 59 72" fill="none" xmlns="http://www.w3.org/2000/svg">
<path fill-rule="evenodd" clip-rule="evenodd" d="M29.198 69.9982C45.1646 69.9982 58.108 54.6798 58.108 35.7836C58.108 16.8875 45.1646 1.56909 29.198 1.56909C13.2315 1.56909 0.288086 16.8875 0.288086 35.7836C0.288086 54.6798 13.2315 69.9982 29.198 69.9982ZM29.4415 64.1628C42.5904 64.1628 53.2497 51.4569 53.2497 35.7833C53.2497 20.1097 42.5904 7.40379 29.4415 7.40379C16.2926 7.40379 5.63333 20.1097 5.63333 35.7833C5.63333 51.4569 16.2926 64.1628 29.4415 64.1628Z" fill="black"/>
<rect x="51.1831" y="0.701904" width="6.17485" height="82.6281" transform="rotate(35.7815 51.1831 0.701904)" fill="black"/>
</svg>
