<svg width="67" height="68" viewBox="0 0 67 68" fill="none" xmlns="http://www.w3.org/2000/svg">
<path d="M33.3011 67.2853C39.881 67.2902 46.3145 65.3435 51.7878 61.6914C57.2611 58.0393 61.5283 52.8459 64.0495 46.7682C66.5707 40.6905 67.2326 34.0016 65.9516 27.5476C64.6706 21.0936 61.5042 15.1646 56.8529 10.5105C52.2016 5.85644 46.2745 2.68646 39.8213 1.40158C33.3681 0.116703 26.6788 0.774656 20.5996 3.29221C14.5204 5.80976 9.32441 10.0738 5.66903 15.5449C2.01365 21.016 0.0630729 27.4484 0.0640568 34.0282C0.0653751 42.8447 3.56692 51.3 9.79922 57.536C16.0315 63.772 24.4847 67.2787 33.3011 67.2853Z" fill="#010101"/>
<path d="M31.91 45.6141H31.8502C31.804 45.5524 31.7624 45.4875 31.7256 45.4198C31.6564 45.2834 31.5981 45.1418 31.5512 44.9962C31.322 44.2488 31.0529 43.5013 30.8735 42.7489C30.2805 40.5463 29.7025 38.3388 29.1195 36.1313C28.3491 33.2305 27.392 30.3826 26.2542 27.6053C25.4447 25.6029 24.3686 23.7189 23.0551 22.0043C22.2378 20.9479 21.3608 19.9413 20.4688 18.9497C19.8484 18.2427 19.1826 17.5769 18.4756 16.9565C17.5608 16.1659 16.5673 15.4713 15.5107 14.8835C15.0435 14.6139 14.5401 14.4125 14.0158 14.2855C13.9588 14.2703 13.9003 14.2619 13.8414 14.2606C13.7218 14.2606 13.6819 14.3204 13.7218 14.4251C13.7493 14.493 13.7862 14.5568 13.8314 14.6144C13.9311 14.749 14.0357 14.8735 14.1453 15.0031C14.7184 15.6659 15.2964 16.3236 15.8595 16.9963C19.3682 21.1788 22.1081 25.95 23.952 31.0885C25.128 34.3673 26.0997 37.7159 27.0116 41.0546C27.9584 44.5428 28.7706 48.0708 29.5032 51.6187C29.6825 52.5057 29.9118 53.3877 30.1161 54.2747C30.1359 54.41 30.2026 54.5341 30.3047 54.6252C30.4067 54.7163 30.5375 54.7686 30.6742 54.773C31.0629 54.8079 31.4565 54.8328 31.8452 54.8328C32.2339 54.8328 32.7471 54.8029 33.1956 54.773C33.3029 54.7623 33.4054 54.7235 33.4929 54.6605C33.5804 54.5975 33.6497 54.5126 33.6939 54.4142C33.775 54.2555 33.8385 54.0884 33.8833 53.9159C34.0029 53.4176 34.1225 52.9492 34.2022 52.4609C34.4812 50.7965 34.7304 49.1272 35.0094 47.4778C35.2088 46.2669 35.428 45.056 35.6722 43.8551C36.031 42.0562 36.5243 40.2922 37.0425 38.5382C37.6523 36.4066 38.3708 34.3076 39.1952 32.2495C39.5384 31.3747 39.9499 30.5283 40.4261 29.7181C40.5955 29.449 40.7898 29.2198 40.9842 28.9457C41.1258 28.7668 41.3246 28.6419 41.5472 28.5919C41.9708 28.4973 42.3844 28.3876 42.8129 28.3179C43.6731 28.1742 44.5199 27.9592 45.3443 27.6751C47.1306 27.0574 48.7234 25.9818 49.9637 24.5557C50.5842 23.8862 51.0563 23.0932 51.3489 22.2286C51.5221 21.6626 51.6438 21.0822 51.7127 20.4945C51.8323 19.453 51.932 18.4115 52.0316 17.3651C52.1015 16.5459 52.2551 15.7361 52.4901 14.9483C52.6396 14.45 52.7592 13.9517 52.8738 13.4833C52.9286 13.264 52.8738 13.1942 52.6445 13.2142C52.4396 13.2341 52.2364 13.2691 52.0366 13.3188C51.0998 13.5431 50.1729 13.8171 49.2311 14.0065C47.8458 14.3154 46.4556 14.5895 45.0653 14.8885C44.4324 15.028 43.7996 15.1775 43.1717 15.342C41.822 15.7274 40.5914 16.4473 39.5939 17.4348C38.3458 18.6206 37.4096 20.096 36.8681 21.7303C36.3756 23.0828 36.1851 24.5268 36.31 25.9609C36.339 26.212 36.3806 26.4614 36.4346 26.7083C36.4384 26.7618 36.456 26.8133 36.4857 26.8578C36.5154 26.9024 36.5562 26.9384 36.604 26.9625C36.6389 26.9077 36.6788 26.8578 36.7087 26.803C36.7834 26.6386 36.8532 26.4741 36.9329 26.3047C37.1422 25.8861 37.3316 25.4626 37.5608 25.0639C37.9987 24.3079 38.4988 23.5895 39.0557 22.9162C39.7803 21.9994 40.6023 21.1639 41.5074 20.4247C42.174 19.8942 42.9422 19.5058 43.7647 19.2836C43.8728 19.25 43.9854 19.2332 44.0986 19.2337C44.2481 19.2337 44.2879 19.3135 44.2182 19.443C44.1892 19.5029 44.1541 19.5597 44.1135 19.6124C43.8544 19.9264 43.6152 20.2403 43.3362 20.5493C42.9624 20.9778 42.5538 21.3814 42.205 21.8299C41.3293 22.9369 40.5302 24.1023 39.8131 25.3181C38.7167 27.2368 37.7559 29.2299 36.9379 31.2828C35.8915 33.869 34.9447 36.5001 34.1025 39.1511C33.6441 40.5712 33.2056 41.9964 32.7422 43.4166C32.5378 44.0444 32.2937 44.6673 32.0645 45.2902C32.0157 45.4044 31.9608 45.5158 31.9 45.6241" fill="white"/>
<path d="M31.91 45.6133C31.9708 45.505 32.0257 45.3936 32.0744 45.2794C32.3036 44.6565 32.5727 44.0336 32.7521 43.4058C33.2155 41.9856 33.6541 40.5604 34.1125 39.1402C34.9746 36.4893 35.9014 33.8582 36.9479 31.272C37.7718 29.2272 38.7375 27.2424 39.838 25.3322C40.5551 24.1164 41.3542 22.951 42.2299 21.844C42.5787 21.3955 42.9873 20.9919 43.3611 20.5634C43.6302 20.2544 43.8594 19.9405 44.1384 19.6265C44.1791 19.5738 44.2141 19.517 44.2431 19.4571C44.3128 19.3276 44.273 19.2528 44.1235 19.2478C44.0103 19.2473 43.8977 19.2641 43.7896 19.2977C42.9672 19.5199 42.1989 19.9083 41.5323 20.4388C40.6272 21.178 39.8052 22.0134 39.0806 22.9303C38.5237 23.6036 38.0237 24.3219 37.5857 25.078C37.3565 25.4767 37.1671 25.9002 36.9578 26.3188C36.8781 26.4783 36.8083 26.6427 36.7336 26.8171C36.7037 26.8719 36.6638 26.9218 36.6289 26.9766C36.5811 26.9525 36.5403 26.9165 36.5106 26.8719C36.4809 26.8273 36.4633 26.7758 36.4595 26.7224C36.4055 26.4755 36.3639 26.2261 36.3349 25.975C36.21 24.5409 36.4005 23.0969 36.8931 21.7443C37.4345 20.1101 38.3707 18.6347 39.6188 17.4489C40.6163 16.4614 41.8469 15.7415 43.1966 15.356C43.8245 15.1916 44.4574 15.0421 45.0902 14.9026C46.4805 14.6036 47.8708 14.3295 49.2561 14.0206C50.1979 13.8113 51.1247 13.5572 52.0615 13.3329C52.2613 13.2831 52.4645 13.2482 52.6695 13.2283C52.8887 13.2283 52.9535 13.2781 52.8987 13.4974C52.7841 13.9957 52.6645 14.494 52.515 14.9624C52.28 15.7502 52.1264 16.56 52.0565 17.3792C51.9569 18.4256 51.8572 19.4671 51.7376 20.5085C51.6687 21.0963 51.547 21.6767 51.3739 22.2426C51.0812 23.1073 50.6091 23.9003 49.9886 24.5697C48.7396 25.994 47.1379 27.0647 45.3443 27.6742C44.5229 27.9561 43.6796 28.1695 42.8229 28.312C42.3944 28.3818 41.9808 28.4914 41.5572 28.5861C41.3345 28.6361 41.1358 28.761 40.9941 28.9399C40.7998 29.194 40.6054 29.4382 40.436 29.7123C39.9592 30.5272 39.5476 31.3787 39.2052 32.2586C38.3808 34.3167 37.6623 36.4157 37.0525 38.5473C36.5542 40.3013 36.0559 42.0653 35.6822 43.8642C35.438 45.0651 35.2187 46.276 35.0194 47.4869C34.7404 49.1463 34.4912 50.8156 34.2122 52.47C34.1324 52.9683 34.0128 53.4417 33.8932 53.925C33.8484 54.0975 33.7849 54.2646 33.7039 54.4233C33.6597 54.5217 33.5904 54.6066 33.5029 54.6696C33.4154 54.7326 33.3129 54.7714 33.2056 54.7821C32.7571 54.812 32.3036 54.8419 31.8552 54.8419C31.4067 54.8419 31.0728 54.817 30.6841 54.7821C30.5474 54.7777 30.4166 54.7254 30.3146 54.6343C30.2126 54.5432 30.1458 54.4191 30.126 54.2838C29.9217 53.3968 29.6925 52.5148 29.5131 51.6278C28.7706 48.1048 27.9684 44.5668 27.0116 41.0737C26.0997 37.7151 25.128 34.3665 23.952 31.1075C22.1102 25.962 19.3702 21.184 15.8595 16.9955C15.2964 16.3228 14.7184 15.665 14.1453 15.0022C14.0357 14.8727 13.9311 14.7481 13.8314 14.6136C13.7862 14.5559 13.7493 14.4922 13.7218 14.4242C13.6819 14.3196 13.7218 14.2598 13.8414 14.2598C13.9003 14.2611 13.9588 14.2694 14.0158 14.2847C14.5401 14.4116 15.0435 14.613 15.5107 14.8827C16.556 15.4788 17.5378 16.18 18.4407 16.9755C19.1477 17.596 19.8135 18.2618 20.434 18.9688C21.3259 19.9654 22.203 20.962 23.0202 22.0234C24.3337 23.738 25.4098 25.6219 26.2193 27.6244C27.3688 30.3992 28.3375 33.2455 29.1195 36.1454C29.7025 38.3529 30.2805 40.5604 30.8735 42.7629C31.0778 43.5204 31.322 44.2579 31.5512 45.0103C31.5981 45.1559 31.6564 45.2975 31.7256 45.4339C31.7624 45.5016 31.804 45.5665 31.8502 45.6282H31.91" fill="white"/>
</svg>
