<svg width="30" height="22" viewBox="0 0 30 22" fill="none" xmlns="http://www.w3.org/2000/svg">
<path d="M29.5623 4.72156C29.5623 4.72156 29.2548 2.5868 28.3957 1.6169C27.291 0.387461 26.0019 0.387461 25.4499 0.323505C21.3375 -7.40207e-08 15.1394 0 15.1394 0C15.1394 0 8.94134 0 4.82893 0.322884C4.27629 0.388082 2.98778 0.388082 1.88308 1.6169C1.02407 2.58742 0.716525 4.72156 0.716525 4.72156C0.716525 4.72156 0.410156 7.2444 0.410156 9.76662V12.0951C0.410156 14.618 0.716525 17.1402 0.716525 17.1402C0.716525 17.1402 1.02407 19.2749 1.88308 20.2448C2.98778 21.4743 4.4607 21.4743 5.1353 21.6034C7.46842 21.8617 15.1394 21.9263 15.1394 21.9263C15.1394 21.9263 21.3375 21.9263 25.4499 21.6034C26.0025 21.5382 27.291 21.5382 28.3957 20.3094C29.2548 19.3395 29.5623 17.2048 29.5623 17.2048C29.5623 17.2048 29.8687 14.6825 29.8687 12.1597V9.8312C29.8687 7.2444 29.5623 4.72156 29.5623 4.72156ZM12.0704 14.9408V6.20931L20.0484 10.6074L12.0704 14.9415V14.9408Z" fill="#010101"/>
</svg>
